<?xml version="1.0" standalone="no"?>
<!DOCTYPE svg PUBLIC "-//W3C//DTD SVG 20010904//EN"
 "http://www.w3.org/TR/2001/REC-SVG-20010904/DTD/svg10.dtd">
<svg version="1.0" xmlns="http://www.w3.org/2000/svg"
 width="700.000000pt" height="700.000000pt" viewBox="0 0 700.000000 700.000000"
 preserveAspectRatio="xMidYMid meet">
<metadata>
Created by potrace 1.11, written by Peter Selinger 2001-2013
</metadata>
<g transform="translate(0.000000,700.000000) scale(0.100000,-0.100000)"
fill="#000000" stroke="none">
<path d="M1816 5180 l-1679 -1679 839 -839 c462 -461 1218 -1218 1681 -1681
l843 -843 1681 1681 1681 1681 -1108 1109 c-610 610 -1111 1107 -1113 1105 -3
-2 -6 -248 -7 -547 -6 -1825 -7 -1868 -26 -1938 -44 -165 -183 -344 -363 -468
-82 -57 -240 -141 -266 -141 -8 0 -20 -5 -25 -10 -12 -12 -167 -47 -254 -56
-174 -19 -426 -5 -571 31 -248 63 -525 259 -645 456 -202 333 -113 725 226
991 131 102 345 196 510 223 19 3 42 8 50 10 34 9 130 18 218 20 252 6 464
-89 702 -313 l75 -70 3 1065 2 1066 -107 115 c-60 64 -115 123 -123 132 -8 9
-60 65 -115 124 -55 60 -116 125 -135 146 -19 20 -75 81 -125 134 -105 114
-164 176 -167 176 -2 0 -758 -756 -1682 -1680z"/>
</g>
</svg>
